# xmcd CD database file
#
# Track frame offsets:
#	150
#	14110
#	30190
#	45792
#	63168
#
# Disc length: 1085 seconds
#
# Revision: 0
# Processed by: cddbd v1.5PL3 Copyright (c) Steve Scherf et al.
# Submitted via: CDex 1.51
#
DISCID=2e043b05
DTITLE=SUNSETFRIP - FIRSTMAXISINGLE
DYEAR=1900
DGENRE=Rock
TTITLE0=TRUST ME
TTITLE1=正しさの向こう
TTITLE2=DISCORD
TTITLE3=STEP BY STEP
TTITLE4=ヒトツ
EXTD=
EXTT0=
EXTT1=
EXTT2=
EXTT3=
EXTT4=
PLAYORDER=
